<?xml version="1.0" encoding="UTF-8"?>
<!DOCTYPE svg PUBLIC "-//W3C//DTD SVG 1.1//EN" "http://www.w3.org/Graphics/SVG/1.1/DTD/svg11.dtd">
<!-- Creator: CorelDRAW -->
<svg xmlns="http://www.w3.org/2000/svg" xml:space="preserve" width="2048px" height="2048px" style="shape-rendering:geometricPrecision; text-rendering:geometricPrecision; image-rendering:optimizeQuality; fill-rule:evenodd; clip-rule:evenodd"
viewBox="0 0 2048 2048"
 xmlns:xlink="http://www.w3.org/1999/xlink">
 <defs>
  <style type="text/css">
   <![CDATA[
    .fil2 {fill:none}
    .fil1 {fill:#1B5E20}
    .fil0 {fill:#388E3C}
    .fil5 {fill:#CA2B03}
    .fil10 {fill:#CFCFCE}
    .fil6 {fill:#DD2C00}
    .fil7 {fill:#E6E6E5}
    .fil11 {fill:#FFFFFE}
    .fil3 {fill:#424242;fill-rule:nonzero}
    .fil9 {fill:#CFCFCF;fill-rule:nonzero}
    .fil8 {fill:#E6E6E5;fill-rule:nonzero}
    .fil4 {fill:#FFFFFE;fill-rule:nonzero}
   ]]>
  </style>
   <clipPath id="id0">
    <path d="M1024 -0.0011811c565.541,0 1024,458.461 1024,1024 0,565.541 -458.461,1024 -1024,1024 -565.541,0 -1024,-458.461 -1024,-1024 0,-565.541 458.461,-1024 1024,-1024z"/>
   </clipPath>
 </defs>
 <g id="Layer_x0020_1">
  <metadata id="CorelCorpID_0Corel-Layer"/>
  <path class="fil0" d="M1024 -0.0011811c565.541,0 1024,458.461 1024,1024 0,565.541 -458.461,1024 -1024,1024 -565.541,0 -1024,-458.461 -1024,-1024 0,-565.541 458.461,-1024 1024,-1024z"/>
  <g style="clip-path:url(#id0)">
   <g id="_517156312">
    <g>
     <polygon id="_5278850241" class="fil1" points="668.184,563.933 1804.07,1699.82 1806.43,1702.29 1808.74,1704.84 1811.01,1707.45 1813.22,1710.14 1815.39,1712.89 679.506,577.007 677.343,574.254 675.128,571.569 672.863,568.953 670.548,566.406 "/>
     <polygon id="_527884832" class="fil1" points="679.506,577.007 1815.39,1712.89 1817.43,1715.62 1819.43,1718.41 1821.37,1721.26 1823.26,1724.17 1825.1,1727.14 1826.88,1730.17 1828.61,1733.25 1830.28,1736.39 1831.9,1739.58 1833.46,1742.82 1834.95,1746.11 1836.39,1749.45 1837.77,1752.84 1839.09,1756.27 1840.34,1759.75 1841.53,1763.28 1842.66,1766.85 1843.72,1770.46 1844.71,1774.11 1845.63,1777.8 1846.49,1781.52 1847.28,1785.29 1847.99,1789.09 1848.64,1792.92 1849.21,1796.79 1849.71,1800.69 1850.14,1804.62 1850.49,1808.58 1850.76,1812.56 1850.96,1816.58 1851.08,1820.62 1851.12,1824.68 715.236,688.798 715.196,684.735 715.078,680.696 714.88,676.681 714.606,672.695 714.256,668.736 713.83,664.806 713.331,660.908 712.758,657.039 712.112,653.206 711.395,649.406 710.608,645.641 709.751,641.913 708.826,638.223 707.834,634.574 706.775,630.963 705.649,627.395 704.46,623.871 703.206,620.39 701.891,616.954 700.512,613.565 699.074,610.225 697.575,606.934 696.017,603.694 694.403,600.505 692.73,597.369 691.001,594.286 689.217,591.26 687.38,588.291 685.489,585.38 683.546,582.528 681.551,579.736 "/>
     <polygon id="_527886608" class="fil1" points="1324.48,757.365 2460.37,1893.25 2464.29,1900.58 2466.74,1908.88 2467.81,1918.07 2467.6,1928.08 2466.18,1938.82 2463.65,1950.22 2460.08,1962.2 2455.59,1974.68 2450.24,1987.57 2444.12,2000.81 2437.34,2014.31 2429.97,2027.99 2422.09,2041.77 2413.81,2055.58 2405.21,2069.33 2396.37,2082.94 2387.39,2096.35 2378.34,2109.46 2369.33,2122.2 2360.44,2134.49 2351.75,2146.25 2343.35,2157.41 2335.34,2167.87 2327.8,2177.57 2320.81,2186.43 2314.47,2194.36 2308.87,2201.28 2304.09,2207.13 2300.21,2211.81 2297.34,2215.25 2295.55,2217.38 2294.94,2218.1 1159.06,1082.22 1159.67,1081.49 1161.46,1079.37 1164.33,1075.93 1168.2,1071.25 1172.99,1065.4 1178.59,1058.48 1184.93,1050.55 1191.91,1041.69 1199.46,1031.99 1207.47,1021.53 1215.87,1010.37 1224.55,998.61 1233.45,986.319 1242.46,973.579 1251.51,960.466 1260.49,947.062 1269.33,933.445 1277.93,919.693 1286.21,905.887 1294.08,892.105 1301.46,878.425 1308.24,864.929 1314.36,851.692 1319.7,838.797 1324.2,826.321 1327.76,814.342 1330.3,802.942 1331.72,792.198 1331.93,782.189 1330.86,772.994 1328.4,764.694 "/>
     <polygon id="_527886632" class="fil1" points="1510,1322.95 2645.88,2458.83 2645.88,2458.83 2645.88,2458.84 2645.87,2458.84 2645.87,2458.84 1509.99,1322.96 1509.99,1322.96 1510,1322.95 1510,1322.95 "/>
     <polygon id="_527886296" class="fil1" points="1433.59,1290.2 2569.47,2426.09 2569.47,2426.06 2569.47,2426.03 2569.47,2426 2569.47,2425.97 2569.47,2425.94 2569.47,2425.92 2569.47,2425.89 2569.47,2425.86 1433.59,1289.98 1433.59,1290 1433.59,1290.03 1433.59,1290.06 1433.59,1290.09 1433.59,1290.12 1433.59,1290.15 1433.59,1290.17 "/>
     <polygon id="_527886320" class="fil1" points="1522.87,1302.29 2658.76,2438.17 2658.29,2439.65 2657.78,2441.11 2657.22,2442.54 2656.61,2443.96 2655.96,2445.35 2655.25,2446.72 2654.5,2448.06 2653.71,2449.38 2652.87,2450.67 2651.99,2451.93 2651.07,2453.16 2650.11,2454.36 2649.11,2455.53 2648.07,2456.66 2647,2457.76 2645.88,2458.83 1510,1322.95 1511.11,1321.88 1512.19,1320.78 1513.23,1319.64 1514.23,1318.48 1515.19,1317.28 1516.11,1316.04 1516.99,1314.78 1517.83,1313.49 1518.62,1312.18 1519.37,1310.84 1520.08,1309.47 1520.73,1308.08 1521.34,1306.66 1521.9,1305.22 1522.41,1303.76 "/>
     <polygon id="_527886224" class="fil1" points="1522.87,1302.29 2658.76,2438.17 2659.15,2436.73 2659.5,2435.27 2659.79,2433.8 2660.04,2432.3 2660.23,2430.79 2660.37,2429.26 2660.45,2427.71 2660.48,2426.15 1524.6,1290.27 1524.57,1291.83 1524.49,1293.38 1524.35,1294.91 1524.16,1296.42 1523.91,1297.92 1523.62,1299.39 1523.27,1300.85 "/>
     <polygon id="_527886008" class="fil1" points="1408.62,531.09 2544.5,1666.97 2544.74,1667.64 2544.94,1668.32 2545.11,1669.01 2545.24,1669.72 2545.33,1670.43 2545.38,1671.16 2545.4,1671.9 2545.37,1672.64 1409.49,536.759 1409.52,536.014 1409.5,535.278 1409.45,534.551 1409.35,533.834 1409.22,533.128 1409.06,532.434 1408.86,531.755 "/>
     <polygon id="_527886032" class="fil1" points="1409.49,536.759 2545.37,1672.64 2536.34,1817.7 1400.46,681.818 "/>
     <polygon id="_527886128" class="fil1" points="1400.46,681.818 2536.34,1817.7 2536.3,1818.54 2536.25,1819.42 2536.22,1820.34 2536.19,1821.31 2536.17,1822.31 2536.15,1823.36 2536.14,1824.45 2536.14,1825.58 1400.26,689.701 1400.26,688.569 1400.27,687.479 1400.29,686.431 1400.31,685.424 1400.34,684.459 1400.37,683.536 1400.41,682.655 "/>
     <polygon id="_527887136" class="fil1" points="1450.18,531.714 2586.06,1667.6 2598.96,1885.43 1463.08,749.551 "/>
     <polygon id="_527886872" class="fil1" points="1402.21,761.771 2538.09,1897.65 2536.44,1896.16 2534.82,1894.63 2533.25,1893.05 2531.72,1891.42 2530.23,1889.75 1394.34,753.863 1395.83,755.536 1397.37,757.164 1398.94,758.745 1400.55,760.281 "/>
     <polygon id="_527887376" class="fil1" points="1487.13,862.875 2623.01,1998.76 2621.84,1998.83 2620.71,1998.89 2619.61,1998.94 2618.53,1998.99 2617.49,1999.03 2616.48,1999.06 2615.49,1999.09 2614.53,1999.11 1478.65,863.227 1479.61,863.208 1480.59,863.182 1481.61,863.149 1482.65,863.109 1483.73,863.062 1484.83,863.006 1485.96,862.945 "/>
     <polygon id="_527887160" class="fil1" points="1478.46,863.227 2614.34,1999.11 2613.38,1999.09 2612.4,1999.06 2611.38,1999.03 2610.34,1998.99 2609.26,1998.94 2608.16,1998.89 2607.03,1998.83 2605.87,1998.76 1469.98,862.875 1471.15,862.945 1472.28,863.006 1473.38,863.062 1474.46,863.109 1475.5,863.149 1476.52,863.182 1477.5,863.208 "/>
     <polygon id="_527886944" class="fil1" points="1321.95,754.134 2457.83,1890.02 2460.37,1893.25 1324.48,757.365 "/>
     <polygon id="_527887328" class="fil1" points="1412.64,772.504 2548.52,1908.39 2546.59,1906.22 2544.73,1904.19 2542.94,1902.32 2541.23,1900.59 2539.62,1899.04 2538.09,1897.65 1402.21,761.771 1403.73,763.156 1405.35,764.712 1407.06,766.433 1408.85,768.311 1410.71,770.338 "/>
     <polygon id="_527887184" class="fil1" points="1492.81,849.614 2628.7,1985.5 2628.28,1986.37 2627.87,1987.24 2627.46,1988.1 2627.07,1988.96 2626.68,1989.81 2626.3,1990.65 2625.93,1991.49 2625.57,1992.33 2625.22,1993.15 2624.87,1993.98 2624.54,1994.79 2624.21,1995.6 2623.9,1996.4 2623.59,1997.19 2623.29,1997.98 2623.01,1998.76 1487.13,862.875 1487.41,862.097 1487.71,861.31 1488.02,860.516 1488.33,859.716 1488.66,858.908 1488.99,858.093 1489.34,857.272 1489.69,856.444 1490.05,855.611 1490.42,854.77 1490.8,853.925 1491.19,853.073 1491.58,852.217 1491.98,851.355 1492.39,850.486 "/>
     <polygon id="_527887208" class="fil1" points="1503.68,528.902 2639.56,1664.78 2658.16,1878.05 1522.27,742.163 "/>
     <polygon id="_527886800" class="fil1" points="1584,689.701 2719.88,1825.58 2719.85,1828.65 2719.75,1831.67 2719.59,1834.63 2719.36,1837.53 2719.07,1840.38 2718.72,1843.17 2718.32,1845.91 2717.84,1848.59 2717.31,1851.22 2716.73,1853.8 2716.08,1856.32 2715.38,1858.79 2714.62,1861.21 2713.81,1863.57 2712.94,1865.89 2712.02,1868.15 2711.05,1870.36 2710.03,1872.52 2708.95,1874.63 2707.83,1876.69 2706.66,1878.7 2705.44,1880.66 2704.17,1882.57 2702.86,1884.44 2701.5,1886.25 2700.1,1888.02 2698.65,1889.75 2697.16,1891.42 2695.62,1893.05 2694.05,1894.63 2692.44,1896.16 2690.78,1897.65 1554.9,761.771 1556.56,760.281 1558.17,758.745 1559.74,757.164 1561.28,755.536 1562.77,753.863 1564.21,752.141 1565.62,750.373 1566.98,748.557 1568.29,746.692 1569.56,744.78 1570.78,742.818 1571.95,740.808 1573.07,738.748 1574.15,736.639 1575.17,734.479 1576.14,732.267 1577.06,730.006 1577.93,727.692 1578.74,725.327 1579.5,722.91 1580.2,720.44 1580.85,717.917 1581.43,715.341 1581.96,712.712 1582.43,710.028 1582.84,707.291 1583.19,704.497 1583.48,701.65 1583.71,698.747 1583.87,695.788 1583.97,692.773 "/>
     <polygon id="_527887064" class="fil1" points="1400.26,689.701 2536.14,1825.58 2536.15,1828.11 2536.26,1830.57 2536.45,1832.98 2536.74,1835.33 2537.11,1837.63 2537.57,1839.87 2538.11,1842.05 2538.73,1844.18 2539.43,1846.25 2540.21,1848.27 2541.06,1850.23 2541.99,1852.14 2542.99,1854 2544.06,1855.8 2545.2,1857.54 2546.41,1859.23 2547.68,1860.87 2549.01,1862.45 1413.13,726.57 1411.8,724.986 1410.53,723.349 1409.32,721.658 1408.18,719.913 1407.11,718.114 1406.11,716.261 1405.18,714.353 1404.33,712.39 1403.55,710.372 1402.85,708.299 1402.23,706.17 1401.69,703.986 1401.23,701.745 1400.86,699.449 1400.57,697.098 1400.38,694.688 1400.27,692.223 "/>
     <polygon id="_527886680" class="fil1" points="1554.9,761.771 2690.78,1897.65 2689.31,1898.99 2687.74,1900.49 2686.1,1902.15 2684.37,1903.95 2682.58,1905.89 2680.72,1907.97 2678.8,1910.17 2676.83,1912.49 2674.82,1914.93 2672.76,1917.47 2670.66,1920.1 2668.54,1922.83 2666.39,1925.64 2664.22,1928.53 2662.04,1931.49 2659.86,1934.5 2657.67,1937.58 2655.49,1940.7 2653.32,1943.86 2651.16,1947.06 2649.03,1950.29 2646.93,1953.53 2644.86,1956.79 2642.82,1960.05 2640.84,1963.31 2638.9,1966.56 2637.03,1969.8 2635.21,1973.01 2633.46,1976.2 2631.79,1979.34 2630.2,1982.45 2628.7,1985.5 1492.81,849.614 1494.32,846.563 1495.91,843.46 1497.58,840.314 1499.33,837.131 1501.14,833.917 1503.02,830.681 1504.96,827.428 1506.94,824.168 1508.97,820.906 1511.05,817.648 1513.15,814.404 1515.28,811.179 1517.44,807.982 1519.61,804.819 1521.79,801.696 1523.98,798.622 1526.16,795.603 1528.34,792.645 1530.51,789.759 1532.66,786.948 1534.78,784.221 1536.88,781.584 1538.94,779.045 1540.95,776.612 1542.92,774.29 1544.84,772.087 1546.7,770.011 1548.49,768.068 1550.21,766.266 1551.86,764.611 1553.43,763.11 "/>
     <polygon id="_527887616" class="fil1" points="1548.49,531.09 2684.37,1666.97 2719.53,1816.05 1583.65,680.168 "/>
     <polygon id="_527887664" class="fil1" points="1583.65,680.168 2719.53,1816.05 2719.61,1817.45 2719.68,1818.78 2719.74,1820.06 2719.79,1821.28 2719.83,1822.44 2719.86,1823.55 2719.88,1824.59 2719.88,1825.58 1584,689.701 1583.99,688.71 1583.98,687.663 1583.95,686.558 1583.91,685.397 1583.86,684.177 1583.8,682.899 1583.73,681.563 "/>
     <polygon id="_527887568" class="fil1" points="1478.65,863.227 2614.53,1999.11 2614.44,2061.61 1478.56,925.729 "/>
     <polygon id="_527887904" class="fil1" points="1445.71,1320.76 2581.59,2456.64 2580.03,2454.87 2578.56,2453.03 2577.19,2451.11 2575.92,2449.11 2574.75,2447.05 2573.69,2444.93 2572.74,2442.75 2571.9,2440.51 2571.18,2438.21 2570.58,2435.87 2570.1,2433.48 2569.76,2431.05 2569.55,2428.59 2569.47,2426.09 1433.59,1290.2 1433.66,1292.7 1433.88,1295.17 1434.22,1297.6 1434.7,1299.99 1435.3,1302.33 1436.02,1304.62 1436.85,1306.86 1437.81,1309.05 1438.87,1311.17 1440.04,1313.23 1441.31,1315.22 1442.68,1317.15 1444.15,1318.99 "/>
     <polygon id="_527887760" class="fil1" points="1477.24,1335.28 2613.12,2471.16 2611.12,2471.04 2609.14,2470.83 2607.19,2470.55 2605.27,2470.17 2603.37,2469.72 2601.51,2469.19 2599.68,2468.58 2597.88,2467.9 2596.12,2467.14 2594.4,2466.31 2592.72,2465.41 2591.09,2464.45 2589.49,2463.42 2587.95,2462.32 2586.45,2461.17 2585,2459.95 1449.12,1324.07 1450.57,1325.29 1452.06,1326.44 1453.61,1327.54 1455.2,1328.57 1456.84,1329.53 1458.52,1330.43 1460.24,1331.26 1462,1332.01 1463.8,1332.7 1465.63,1333.31 1467.49,1333.84 1469.39,1334.29 1471.31,1334.66 1473.26,1334.95 1475.24,1335.16 "/>
     <polygon id="_527887928" class="fil1" points="1509.99,1322.96 2645.87,2458.84 2644.04,2460.49 2642.16,2462.01 2640.24,2463.41 2638.28,2464.69 2636.29,2465.85 2634.27,2466.89 2632.22,2467.81 2630.14,2468.62 2628.05,2469.32 2625.94,2469.9 2623.81,2470.38 2621.68,2470.74 2619.54,2471 2617.4,2471.16 2615.26,2471.21 2613.12,2471.16 1477.24,1335.28 1479.38,1335.33 1481.52,1335.28 1483.66,1335.12 1485.8,1334.86 1487.93,1334.5 1490.05,1334.02 1492.17,1333.44 1494.26,1332.74 1496.34,1331.93 1498.39,1331.01 1500.41,1329.97 1502.4,1328.81 1504.36,1327.53 1506.28,1326.13 1508.16,1324.61 "/>
     <polygon id="_527887856" class="fil1" points="1445.77,1320.9 2581.65,2456.78 2583.29,2458.41 2585,2459.95 1449.12,1324.07 1447.41,1322.53 "/>
     <polygon id="_527887976" class="fil1" points="715.236,688.798 1851.12,1824.68 1851.08,1828.74 1850.96,1832.78 1850.76,1836.8 1850.49,1840.78 1850.14,1844.74 1849.71,1848.67 1849.21,1852.57 1848.64,1856.44 1847.99,1860.27 1847.28,1864.07 1846.49,1867.84 1845.63,1871.56 1844.71,1875.25 1843.72,1878.9 1842.66,1882.51 1841.53,1886.08 1840.34,1889.61 1839.09,1893.09 1837.77,1896.52 1836.39,1899.91 1834.95,1903.25 1833.46,1906.54 1831.9,1909.78 1830.28,1912.97 1828.61,1916.11 1826.88,1919.19 1825.1,1922.22 1823.26,1925.19 1821.37,1928.1 1819.43,1930.95 1817.43,1933.74 1815.39,1936.47 679.506,800.587 681.551,797.858 683.546,795.067 685.489,792.214 687.38,789.303 689.217,786.334 691.001,783.308 692.73,780.226 694.403,777.09 696.017,773.901 697.575,770.662 699.074,767.37 700.512,764.03 701.891,760.641 703.206,757.206 704.46,753.726 705.649,750.2 706.775,746.632 707.834,743.023 708.826,739.372 709.751,735.682 710.608,731.954 711.395,728.19 712.112,724.391 712.758,720.557 713.331,716.689 713.83,712.79 714.256,708.86 714.606,704.901 714.88,700.915 715.078,696.901 715.196,692.861 "/>
     <polygon id="_527887448" class="fil1" points="679.506,800.587 1815.39,1936.47 1813.52,1938.85 1811.62,1941.18 1809.68,1943.46 1807.7,1945.68 1805.69,1947.86 1803.64,1949.98 1801.55,1952.04 1799.43,1954.05 1797.28,1956.01 1795.09,1957.9 1792.87,1959.74 1790.62,1961.52 1788.34,1963.25 1786.02,1964.91 1783.68,1966.51 1781.3,1968.05 1778.9,1969.52 1776.47,1970.93 1774.01,1972.28 1771.52,1973.56 1769.01,1974.78 1766.47,1975.93 1763.9,1977.01 1761.32,1978.02 1758.7,1978.97 1756.07,1979.84 1753.41,1980.64 1750.73,1981.37 1748.03,1982.03 1745.31,1982.61 1742.56,1983.12 1739.8,1983.56 603.921,847.675 606.682,847.241 609.424,846.731 612.147,846.147 614.848,845.489 617.528,844.759 620.187,843.956 622.822,843.083 625.434,842.14 628.022,841.126 630.586,840.046 633.126,838.896 635.639,837.68 638.125,836.398 640.584,835.051 643.016,833.638 645.42,832.163 647.795,830.625 650.139,829.025 652.454,827.364 654.739,825.642 656.991,823.862 659.212,822.022 661.399,820.125 663.553,818.17 665.673,816.16 667.758,814.096 669.808,811.975 671.822,809.801 673.801,807.575 675.74,805.296 677.643,802.967 "/>
     <polygon id="_527888144" class="fil1" points="578.03,848.026 1713.91,1983.91 1711.05,1983.54 1708.2,1983.08 1705.38,1982.55 1702.58,1981.94 1699.8,1981.25 1697.04,1980.48 1694.3,1979.64 1691.59,1978.72 1688.91,1977.73 1686.25,1976.66 1683.62,1975.52 1681.01,1974.31 1678.43,1973.03 1675.88,1971.68 1673.36,1970.26 1670.87,1968.77 1668.41,1967.22 1665.98,1965.6 1663.58,1963.91 1661.21,1962.16 1658.88,1960.35 1656.58,1958.47 1654.32,1956.53 1652.09,1954.54 1649.89,1952.48 514.013,816.595 516.206,818.653 518.435,820.652 520.699,822.59 522.997,824.466 525.33,826.28 527.696,828.03 530.095,829.716 532.524,831.337 534.985,832.892 537.478,834.379 539.998,835.798 542.549,837.149 545.128,838.43 547.734,839.64 550.368,840.779 553.027,841.844 555.713,842.838 558.422,843.755 561.156,844.599 563.914,845.365 566.695,846.055 569.497,846.667 572.32,847.201 575.165,847.654 "/>
     <polygon id="_527888288" class="fil1" points="603.639,948.707 1739.52,2084.59 1739.53,2086.22 1739.54,2087.81 1739.56,2089.37 1739.59,2090.9 1739.63,2092.4 1739.68,2093.86 1739.74,2095.29 1739.8,2096.69 603.918,960.807 603.854,959.407 603.798,957.976 603.75,956.513 603.71,955.018 603.68,953.49 603.657,951.93 603.644,950.336 "/>
     <polygon id="_527888888" class="fil1" points="605.457,960.799 1741.34,2096.68 1741.94,2100.84 1742.64,2104.64 1743.41,2108.14 1744.27,2111.35 1745.2,2114.3 1746.19,2117.03 1747.24,2119.56 1748.33,2121.92 1749.47,2124.15 1750.64,2126.27 1751.83,2128.31 1753.05,2130.3 1754.28,2132.27 1755.51,2134.26 1756.74,2136.28 1757.96,2138.38 1759.16,2140.57 1760.34,2142.9 1761.48,2145.38 1762.59,2148.06 1763.65,2150.95 1764.65,2154.09 1765.6,2157.5 1766.47,2161.23 1767.28,2165.29 1767.99,2169.71 1768.62,2174.54 1769.15,2179.79 1769.57,2185.49 1769.89,2191.68 1770.08,2198.38 1770.15,2205.63 634.264,1069.75 634.198,1062.5 634.006,1055.8 633.694,1049.61 633.269,1043.9 632.739,1038.66 632.112,1033.83 631.394,1029.4 630.593,1025.34 629.718,1021.62 628.773,1018.2 627.767,1015.06 626.708,1012.17 625.601,1009.5 624.455,1007.02 623.278,1004.69 622.076,1002.5 620.856,1000.4 619.628,998.376 618.395,996.391 617.168,994.417 615.952,992.424 614.756,990.383 613.587,988.265 612.45,986.038 611.356,983.675 610.309,981.144 609.319,978.418 608.391,975.464 607.534,972.256 606.754,968.762 606.06,964.953 "/>
     <polygon id="_527888264" class="fil1" points="634.264,1069.75 1770.15,2205.63 1770.14,2426.74 1770.08,2428.99 1769.9,2431.21 1769.6,2433.41 1769.19,2435.58 1768.67,2437.71 1768.04,2439.81 1767.31,2441.86 1766.47,2443.87 1765.54,2445.83 1764.51,2447.75 1763.39,2449.61 1762.18,2451.41 1760.89,2453.16 1759.51,2454.84 1758.06,2456.45 1756.53,2458 620.646,1322.12 622.177,1320.57 623.632,1318.96 625.008,1317.28 626.301,1315.53 627.51,1313.73 628.629,1311.87 629.657,1309.95 630.59,1307.99 631.426,1305.98 632.16,1303.92 632.789,1301.83 633.311,1299.69 633.723,1297.53 634.021,1295.33 634.202,1293.11 634.263,1290.86 "/>
     <polygon id="_527888576" class="fil1" points="620.646,1322.12 1756.53,2458 1756.45,2458.08 1756.37,2458.16 1756.29,2458.24 1756.22,2458.32 1756.14,2458.4 1756.06,2458.48 1755.98,2458.56 1755.9,2458.64 1754.12,2460.33 1752.29,2461.89 1750.41,2463.33 1748.49,2464.63 1746.53,2465.82 1744.54,2466.88 1742.52,2467.82 1740.48,2468.64 1738.41,2469.35 1736.33,2469.94 1734.23,2470.41 1732.12,2470.77 1730.01,2471.03 1727.89,2471.17 1725.78,2471.21 1723.67,2471.14 1721.58,2470.97 1719.49,2470.7 1717.43,2470.32 1715.39,2469.85 1713.37,2469.29 1711.38,2468.62 1709.43,2467.87 1707.51,2467.02 1705.64,2466.09 1703.81,2465.07 1702.03,2463.96 1700.31,2462.77 1698.64,2461.49 1697.03,2460.14 561.153,1324.26 562.759,1325.61 564.427,1326.88 566.151,1328.08 567.93,1329.18 569.758,1330.21 571.633,1331.14 573.548,1331.99 575.501,1332.74 577.489,1333.4 579.505,1333.97 581.548,1334.44 583.613,1334.81 585.695,1335.09 587.791,1335.26 589.898,1335.32 592.011,1335.29 594.126,1335.14 596.24,1334.89 598.347,1334.53 600.445,1334.05 602.529,1333.46 604.595,1332.76 606.641,1331.94 608.66,1331 610.65,1329.94 612.606,1328.75 614.527,1327.44 616.405,1326.01 618.238,1324.45 620.021,1322.75 620.1,1322.67 620.178,1322.59 620.256,1322.52 620.336,1322.44 620.413,1322.36 620.491,1322.28 620.568,1322.2 "/>
     <polygon id="_527888648" class="fil1" points="603.921,847.675 1739.8,1983.56 1739.52,2084.59 603.639,948.707 "/>
     <polygon id="_527888792" class="fil1" points="1420.69,1403.59 2556.57,2539.47 2557.58,2540.6 1421.7,1404.72 "/>
     <polygon id="_527888840" class="fil1" points="1421.7,1404.72 2557.58,2540.6 2557.71,2540.97 2558.09,2541.66 2558.7,2542.66 2559.51,2543.95 2560.48,2545.51 2561.57,2547.32 2562.76,2549.35 2564.01,2551.6 2565.27,2554.03 2566.54,2556.64 2567.76,2559.39 2568.9,2562.26 2569.93,2565.25 2570.81,2568.33 2571.52,2571.47 2572.01,2574.66 1436.13,1438.78 1435.63,1435.58 1434.93,1432.44 1434.04,1429.37 1433.01,1426.38 1431.87,1423.5 1430.66,1420.75 1429.39,1418.15 1428.12,1415.72 1426.88,1413.47 1425.69,1411.43 1424.6,1409.63 1423.63,1408.07 1422.82,1406.78 1422.21,1405.78 1421.82,1405.08 "/>
     <polygon id="_527888408" class="fil1" points="1436.13,1438.78 2572.01,2574.66 2572.01,2574.7 2572.02,2574.74 2572.02,2574.77 2572.03,2574.81 2572.03,2574.85 2572.04,2574.89 2572.04,2574.93 2572.05,2574.97 1436.16,1439.09 1436.16,1439.05 1436.16,1439.01 1436.15,1438.97 1436.15,1438.93 1436.14,1438.89 1436.14,1438.85 1436.13,1438.81 "/>
     <polygon id="_527888480" class="fil1" points="1436.16,1439.09 2572.05,2574.97 2572.12,2575.66 2572.17,2576.36 2572.22,2577.05 2572.25,2577.74 2572.27,2578.44 2572.28,2579.13 2572.27,2579.83 2572.25,2580.52 1436.37,1444.64 1436.39,1443.94 1436.4,1443.25 1436.39,1442.55 1436.37,1441.86 1436.34,1441.17 1436.29,1440.47 1436.23,1439.78 "/>
     <polygon id="_527888672" class="fil1" points="1436.37,1444.64 2572.25,2580.52 2572.1,2582.93 2571.83,2585.33 2571.46,2587.71 2570.97,2590.08 2570.38,2592.44 2569.68,2594.79 2568.87,2597.12 2567.96,2599.45 2566.94,2601.76 2565.82,2604.07 2564.61,2606.36 2563.29,2608.65 2561.87,2610.93 2560.35,2613.2 2558.74,2615.46 2557.04,2617.72 1421.15,1481.84 1422.86,1479.58 1424.47,1477.32 1425.99,1475.05 1427.41,1472.77 1428.72,1470.48 1429.94,1468.19 1431.06,1465.88 1432.08,1463.57 1432.99,1461.24 1433.8,1458.91 1434.5,1456.56 1435.09,1454.2 1435.58,1451.83 1435.95,1449.45 1436.22,1447.05 "/>
     <polygon id="_527889632" class="fil1" points="1124.5,1460.38 2260.38,2596.26 2259.63,2595.59 2258.9,2595.06 2258.17,2594.65 2257.45,2594.35 2256.74,2594.16 2256.05,2594.08 2255.37,2594.09 1119.49,1458.2 1120.17,1458.19 1120.86,1458.28 1121.57,1458.47 1122.29,1458.76 1123.02,1459.18 1123.75,1459.71 "/>
     <polygon id="_527889440" class="fil1" points="1410.65,1487.22 2546.53,2623.11 2538.2,2622.97 2529.87,2622.82 2521.55,2622.68 2513.22,2622.53 2504.89,2622.38 2496.57,2622.23 2488.24,2622.07 2479.91,2621.92 2471.58,2621.76 2463.25,2621.6 2454.93,2621.44 2446.6,2621.27 2438.27,2621.11 2429.94,2620.94 2421.61,2620.77 2413.28,2620.6 2404.96,2620.43 2396.63,2620.25 2388.3,2620.07 2379.97,2619.89 2371.64,2619.71 2363.31,2619.53 2354.99,2619.35 2346.66,2619.16 2338.33,2618.97 2330,2618.78 2321.68,2618.59 2313.35,2618.4 2305.03,2618.21 2296.7,2618.01 2288.37,2617.81 2280.05,2617.62 1144.17,1481.73 1152.49,1481.93 1160.82,1482.13 1169.14,1482.32 1177.47,1482.52 1185.8,1482.71 1194.12,1482.9 1202.45,1483.09 1210.78,1483.28 1219.11,1483.46 1227.43,1483.65 1235.76,1483.83 1244.09,1484.01 1252.42,1484.19 1260.75,1484.37 1269.07,1484.54 1277.4,1484.72 1285.73,1484.89 1294.06,1485.06 1302.39,1485.23 1310.72,1485.39 1319.04,1485.56 1327.37,1485.72 1335.7,1485.88 1344.03,1486.04 1352.36,1486.19 1360.68,1486.35 1369.01,1486.5 1377.34,1486.65 1385.67,1486.8 1393.99,1486.94 1402.32,1487.08 "/>
     <polygon id="_527889464" class="fil1" points="1119.49,1458.2 2255.37,2594.09 2255.19,2594.1 2255,2594.13 2254.83,2594.16 2254.65,2594.2 2254.47,2594.24 2254.29,2594.29 2254.12,2594.34 2253.94,2594.4 1118.06,1458.51 1118.24,1458.46 1118.41,1458.4 1118.59,1458.35 1118.77,1458.31 1118.94,1458.28 1119.12,1458.25 1119.3,1458.22 "/>
     <polygon id="_527889248" class="fil1" points="1421.15,1481.84 2557.04,2617.72 2556.1,2618.91 2555.03,2619.98 2553.85,2620.91 2552.55,2621.69 2551.15,2622.32 2549.68,2622.77 2548.13,2623.05 2546.53,2623.12 1410.65,1487.24 1412.25,1487.16 1413.8,1486.89 1415.27,1486.44 1416.67,1485.81 1417.96,1485.03 1419.15,1484.09 1420.22,1483.03 "/>
     <polygon id="_527889200" class="fil1" points="1118.06,1458.51 2253.94,2594.4 2253.31,2594.64 2252.66,2594.91 2252.02,2595.22 2251.37,2595.55 2250.71,2595.91 2250.06,2596.3 2249.4,2596.71 2248.74,2597.14 1112.86,1461.26 1113.52,1460.82 1114.17,1460.41 1114.83,1460.03 1115.49,1459.67 1116.14,1459.33 1116.78,1459.03 1117.43,1458.76 "/>
     <polygon id="_527889152" class="fil1" points="1144.17,1481.73 2280.05,2617.62 2278.01,2617.59 2276.02,2617.25 2274.13,2616.59 2272.37,2615.65 2270.77,2614.43 1134.89,1478.54 1136.49,1479.76 1138.25,1480.71 1140.14,1481.37 1142.13,1481.71 "/>
     <polygon id="_527889488" class="fil1" points="1112.86,1461.26 2248.74,2597.14 2247,2598.38 2245.27,2599.72 2243.58,2601.14 2241.93,2602.6 2240.36,2604.07 2238.86,2605.51 2237.46,2606.89 2236.17,2608.18 1100.29,1472.3 1101.58,1471.01 1102.98,1469.63 1104.48,1468.19 1106.05,1466.72 1107.7,1465.26 1109.39,1463.84 1111.12,1462.5 "/>
     <polygon id="_527889536" class="fil1" points="1100.29,1472.3 2236.17,2608.18 2234.93,2609.42 2233.74,2610.58 2232.58,2611.66 2231.44,2612.65 2230.31,2613.55 2229.16,2614.34 2227.98,2615.01 2226.75,2615.57 1090.87,1479.68 1092.09,1479.13 1093.27,1478.45 1094.42,1477.67 1095.56,1476.77 1096.7,1475.78 1097.86,1474.7 1099.05,1473.53 "/>
     <polygon id="_527889176" class="fil1" points="1090.87,1479.68 2226.75,2615.57 2220.49,2618.97 2214.05,2622.21 2207.43,2625.3 2200.65,2628.23 2193.71,2631.01 2186.62,2633.63 2179.39,2636.09 2172.03,2638.41 2164.53,2640.57 2156.91,2642.57 2149.18,2644.43 2141.34,2646.13 2133.41,2647.68 2125.38,2649.08 2117.26,2650.33 2109.07,2651.43 2100.81,2652.38 2092.48,2653.18 2084.1,2653.84 2075.67,2654.34 2067.2,2654.7 2058.7,2654.91 2050.17,2654.98 2041.62,2654.9 2033.06,2654.67 2024.49,2654.3 2015.93,2653.79 2007.38,2653.13 1998.84,2652.33 1990.33,2651.38 1981.85,2650.29 1973.42,2649.07 837.535,1513.18 845.973,1514.41 854.451,1515.5 862.961,1516.44 871.496,1517.25 880.048,1517.9 888.611,1518.42 897.177,1518.79 905.737,1519.01 914.286,1519.09 922.817,1519.03 931.32,1518.82 939.791,1518.46 948.219,1517.95 956.6,1517.3 964.926,1516.5 973.188,1515.55 981.38,1514.45 989.494,1513.2 997.524,1511.8 1005.46,1510.25 1013.3,1508.55 1021.03,1506.69 1028.65,1504.68 1036.15,1502.53 1043.51,1500.21 1050.74,1497.75 1057.83,1495.12 1064.77,1492.35 1071.55,1489.42 1078.16,1486.33 1084.61,1483.09 "/>
     <polygon id="_527889584" class="fil1" points="837.535,1513.18 1973.42,2649.07 1966.36,2647.93 1959.34,2646.69 1952.36,2645.35 1945.42,2643.91 1938.52,2642.38 1931.67,2640.75 1924.87,2639.02 1918.14,2637.19 1911.47,2635.27 1904.86,2633.25 1898.33,2631.13 1891.87,2628.92 1885.5,2626.6 1879.2,2624.2 1873,2621.69 1866.9,2619.09 1860.89,2616.39 1854.98,2613.6 1849.18,2610.71 1843.49,2607.73 1837.92,2604.65 1832.47,2601.47 1827.14,2598.2 1821.95,2594.84 1816.88,2591.38 1811.96,2587.82 1807.18,2584.18 1802.54,2580.43 1798.06,2576.6 662.176,1440.71 666.66,1444.55 671.295,1448.29 676.078,1451.94 681.003,1455.5 686.065,1458.96 691.263,1462.32 696.589,1465.59 702.04,1468.76 707.612,1471.84 713.299,1474.83 719.098,1477.72 725.005,1480.51 731.014,1483.21 737.122,1485.81 743.324,1488.31 749.614,1490.72 755.991,1493.03 762.448,1495.25 768.981,1497.37 775.586,1499.39 782.259,1501.31 788.994,1503.14 795.788,1504.87 802.636,1506.5 809.534,1508.03 816.478,1509.47 823.462,1510.8 830.482,1512.04 "/>
    </g>
    <path id="_517155856" class="fil1" d="M1449.12 1324.07c-0.011811,-0.00944883 -0.0236221,-0.0200788 -0.0354331,-0.0307087 -9.45355,-8.2878 -15.4524,-20.4106 -15.4973,-33.8374 0,-0.0755906 0,-0.151181 0,-0.226772 -0.0236221,14.263 6.20552,26.0965 15.5327,34.0949zm60.8835 -1.12441c-0.00472441,0.00472441 -0.00944883,0.00826772 -0.0141732,0.0129921 -9.64016,9.1193 -21.3851,12.8563 -32.7461,12.3165 0.0141732,0.0011811 0.0295276,0.0011811 0.0437008,0.00236221 0.548032,0.0200788 1.09843,0.0295276 1.65118,0.0295276l0.65315 -0.00944883 0.0472441 0c11.6339,-0.18189 22.3276,-4.89213 30.365,-12.352zm12.8717 -20.6599c-2.31732,7.93229 -6.84804,15.0685 -12.8717,20.6599 0.327166,-0.31063 0.65315,-0.627166 0.975591,-0.949607 5.45906,-5.45906 9.67914,-12.1618 11.8961,-19.7103zm1.72677 -12.0165c0,4.07717 -0.585827,8.05512 -1.67835,11.8524 -0.0165354,0.0543308 -0.0318898,0.109843 -0.0484252,0.164173 1.1185,-3.80788 1.72677,-7.83071 1.72677,-12.0165zm23.889 -759.18l35.1579 149.078c0.236221,3.79725 0.351969,6.96733 0.351969,9.53268 0,33.0709 -11.2536,56.4166 -29.0977,72.0709 -15.2646,13.3913 -46.5048,55.5957 -62.0882,87.8422 -2.25591,4.66772 -4.18465,9.12757 -5.68819,13.2614 -3.14055,0.194882 -5.96221,0.311811 -8.47442,0.351969l-0.0956694 62.5016 -0.0968505 -62.5016c-2.51339,-0.0401575 -5.33386,-0.157087 -8.47442,-0.351969 -1.16811,-3.21142 -2.59252,-6.6189 -4.22835,-10.1693 -15.0083,-32.5807 -47.791,-77.1107 -63.5481,-90.9343 -17.8441,-15.6543 -29.0988,-39 -29.0988,-72.0709l0.351969 -9.53268 35.1591 -149.078c0.67441,1.75276 0.992127,3.67323 0.869292,5.6693l-9.02717 145.058c-0.137008,2.17677 -0.20315,4.81181 -0.20315,7.88268 -0.368504,27.2103 15.3992,44.6764 37.0583,53.5264l12.8599 -211.513 12.9059 217.837c5.02678,0.54567 10.1433,0.748819 15.2599,0.618898l0.212599 -0.00472441 0.211417 0.00472441c6.04961,0.153543 12.098,-0.158268 17.9988,-0.950788l6.91654 -220.317 18.5917 213.261c20.3717,-9.15001 34.9299,-26.3032 34.5756,-52.4622 0,-3.07087 -0.0661418,-5.70591 -0.201969,-7.88268l-8.15788 -150.728zm-389.432 551.128l19.5024 -259.585c34.5603,-70.6536 120.802,-101.834 145.924,-65.2678 49.9524,72.7028 -165.464,324.872 -165.427,324.853zm290.061 241.853c7.81772,6.70512 17.8122,10.7161 28.1232,11.2051 -10.7339,-0.398032 -20.5382,-4.56851 -28.1232,-11.2051zm-859.502 -795.168c35.328,0 67.0926,18.3839 89.889,48.104 22.0748,28.7835 35.7296,68.3221 35.7296,111.791 0,43.4693 -13.6547,83.0068 -35.7296,111.789 -19.6736,25.65 -46.0276,42.8563 -75.5859,47.0882l-0.281103 101.032c0,4.38898 0.0968505,8.40709 0.27874,12.1004l1.53898 -0.00826772c5.90788,46.2473 28.8071,28.6299 28.8071,108.95l-0.0011811 221.11c0,12.0508 -5.25473,23.2099 -13.6169,31.2579 -0.206693,0.21378 -0.414567,0.426378 -0.624804,0.636615 -18.7512,18.75 -46.5674,15.0744 -61.8815,-1.44095 -7.76339,-7.97717 -12.5492,-18.8492 -12.5244,-30.7595l0.912993 -219.281c0.244488,-76.4646 24.3437,-65.0327 29.9492,-110.312l1.40197 -0.00826772c0.0992127,-2.55236 0.151181,-5.25355 0.151181,-8.11772l-0.0011811 -104.808c-30.6579,-3.54095 -58.0264,-21.0059 -78.3001,-47.439 -22.0748,-28.7823 -35.7296,-68.3209 -35.7296,-111.789 0,-43.4693 13.6547,-83.0079 35.7296,-111.79 22.7965,-29.7213 54.5599,-48.1052 89.8879,-48.1052zm531.248 866.209l290.638 4.88032c3.81851,-0.11811 7.64174,1.50591 10.1988,4.72796 -0.108662,1.01929 12.424,16.9512 14.426,34.0548 0.0141732,0.103937 0.0259843,0.209055 0.0366142,0.314173 0.201969,1.84252 0.282284,3.69803 0.206693,5.55 -0.518504,12.8965 -5.863,25.1776 -15.2173,37.1988 -2.29961,3.32244 -6.16418,5.47323 -10.5083,5.4l0 -0.0141732c-88.8119,-1.49055 -177.678,-3.36378 -266.478,-5.49095 -5.48268,0.39567 -10.7728,-2.87953 -12.6933,-8.3126l0.0389764 -0.0129921c-4.26024,-12.0307 -8.42009,-15.4984 -12.0272,-15.2043 -0.485433,0.0401575 -0.960237,0.147638 -1.42441,0.311811 -1.68898,0.597638 -3.44764,1.5626 -5.20276,2.74134 -4.65827,3.12874 -9.29764,7.76694 -12.5728,11.0433 -3.38386,3.38386 -6.07796,6.07678 -9.41694,7.38544 -65.8146,37.1126 -163.558,47.3563 -253.335,33.4985 -75.3827,-11.6362 -146.052,-40.1185 -187.858,-84.5434 -4.37953,-4.65355 -14.8571,-15.9307 -18.4488,-24.2575 -0.798426,-1.84843 -1.25669,-3.55158 -1.23307,-5.00433 0.111024,-6.90119 5.79685,-12.4063 12.6969,-12.2953l478.174 8.02914z"/>
   </g>
  </g>
  <path class="fil2" d="M1024 -0.0011811c565.541,0 1024,458.461 1024,1024 0,565.541 -458.461,1024 -1024,1024 -565.541,0 -1024,-458.461 -1024,-1024 0,-565.541 458.461,-1024 1024,-1024z"/>
  <path class="fil3" d="M1083.85 1455.74c0.99567,-0.179528 2.00315,-0.23504 2.99646,-0.173622 2.68819,0.0153543 -2.75315,-0.360236 -3.95551,-0.791339l0.959056 0.964961z"/>
  <path class="fil4" d="M837.535 1513.18c-75.3827,-11.6374 -146.052,-40.1185 -187.858,-84.5446 -5.35158,-5.68583 -19.8106,-21.2646 -19.6819,-29.2607 0.111024,-6.90119 5.79567,-12.4063 12.6969,-12.2953l768.812 12.9095c3.81733,-0.11811 7.64174,1.50709 10.1988,4.72796 -0.120473,1.13504 15.4394,20.7697 14.6693,39.9189 -0.518504,12.8976 -5.863,25.1776 -15.2185,37.1977 -2.29843,3.32481 -6.163,5.47441 -10.5071,5.40119l0 -0.0141732c-88.8119,-1.48937 -177.678,-3.3626 -266.478,-5.49213 -5.48268,0.396851 -10.7728,-2.87835 -12.6945,-8.31142l0.0389764 -0.0141732c-4.83189,-13.6476 -9.53623,-16.2756 -13.4504,-14.8914 -6.17363,2.18268 -13.265,9.27402 -17.7768,13.7847 -3.38268,3.38386 -6.07678,6.07678 -9.41576,7.38544 -65.8146,37.1126 -163.559,47.3563 -253.335,33.4985z"/>
  <path class="fil5" d="M1120.01 1434.15l0 0.0401575 -0.525591 24.013c3.60709,-0.294095 7.76812,3.17362 12.026,15.2032l-0.0389764 0.0141732c1.92166,5.43308 7.21182,8.70827 12.6945,8.31142 88.8001,2.12953 177.666,4.00276 266.478,5.49213l0 0.0141732c4.3441,0.0732284 8.20867,-2.07638 10.5071,-5.40119 9.35552,-12.0201 14.7,-24.3 15.2185,-37.1977 0.0755906,-1.85079 -0.00472441,-3.70748 -0.206693,-5.55l-0.0366142 -0.314173 -316.116 -4.6252z"/>
  <path class="fil6" d="M1411.5 1399.99l-290.638 -4.88032 -0.853938 39.0378 316.116 4.6252c-2.00433,-17.1047 -14.5347,-33.0355 -14.426,-34.0548 -2.55709,-3.22087 -6.3815,-4.84607 -10.1988,-4.72796z"/>
  <path class="fil7" d="M837.535 1513.18c89.7757,13.8579 187.52,3.61418 253.335,-33.4985 3.33898,-1.30866 6.03308,-4.00158 9.41576,-7.38544 3.27756,-3.27638 7.91575,-7.91457 12.5752,-11.0445 -220.586,64.193 -368.403,19.7055 -481.633,-56.8713 3.59174,8.3256 14.0693,19.6028 18.4488,24.2551 41.8063,44.426 112.475,72.9071 187.858,84.5446z"/>
  <path class="fil4" d="M603.935 842.844c0,-7.07245 -6.02835,-12.5102 -13.0996,-12.5102 -7.07127,0 -12.8043,5.73308 -12.8043,12.8043l0 109.696c0,68.7544 -29.8571,43.5331 -30.1252,127.338l-0.884646 212.359 0 0.0011811c0,11.7768 4.80827,22.4752 12.5551,30.2209 7.74686,7.74804 18.4441,12.5551 30.2209,12.5551l0.0011811 0 0.0011811 0c11.7768,0 22.4752,-4.80709 30.2221,-12.5551 7.74686,-7.74568 12.8492,-18.1488 12.8492,-29.9268l0 -214.128c0,-89.3056 -29.2311,-53.5867 -29.2311,-129.991l0.295276 -105.863z"/>
  <path class="fil4" d="M589.617 528.903c35.328,0 67.0926,18.3839 89.8879,48.104 22.0772,28.7835 35.7307,68.3221 35.7307,111.79l0 0.0011811c0,43.4693 -13.6547,83.0068 -35.7307,111.789 -22.7953,29.7213 -54.5587,48.104 -89.8867,48.104l0 0c-35.328,0 -67.0926,-18.3827 -89.8879,-48.104 -22.0772,-28.7835 -35.7307,-68.3209 -35.7307,-111.79 0,-43.4681 13.6536,-83.0068 35.7307,-111.789 22.7953,-29.7213 54.5587,-48.1052 89.8867,-48.1052z"/>
  <path class="fil8" d="M589.619 535.939c28.0418,0 53.2559,14.5925 71.3493,38.1839 17.524,22.8473 28.363,54.2315 28.363,88.7351l0 0.0011811c-0.0011811,34.5036 -10.839,65.8878 -28.363,88.7351 -18.0933,23.5914 -43.3063,38.1839 -71.3493,38.1839l0 0c-28.0429,0 -53.2559,-14.5925 -71.3504,-38.1839 -17.524,-22.8473 -28.3618,-54.2315 -28.3618,-88.7363 0,-34.5036 10.8378,-65.8878 28.3618,-88.7351 18.0945,-23.5914 43.3075,-38.1839 71.3504,-38.1839z"/>
  <path class="fil5" d="M590.424 960.883l-13.9453 0.0767717c-5.60788,45.2788 -29.7059,33.8469 -29.9504,110.312l-0.912993 219.282c-0.0507874,24.2362 19.8201,44.1709 44.1721,44.1709 0.212599,0 0.424016,-0.00472441 0.636615,-0.00826772l0 -373.833z"/>
  <path class="fil6" d="M605.457 960.8l-14.7307 0.080315 -0.302362 0.00236221 0 373.833 0.046063 0c23.9398,-0.37441 43.7929,-20.4343 43.7929,-43.8579l0.0011811 -221.11c0,-80.3197 -22.8992,-62.7036 -28.8071,-108.949z"/>
  <path class="fil9" d="M585.578 560.731c-1.60866,0 -2.91378,1.30512 -2.91378,2.91378 0,1.60866 1.30512,2.91378 2.91378,2.91378 10.9571,0 21.3792,2.79921 30.8599,7.87323 9.92363,5.31142 18.8256,13.102 26.2453,22.7752 7.22717,9.42284 13.0559,20.6599 17.041,33.1288 3.84095,12.0165 5.96103,25.1847 5.96103,38.9823 0,1.60866 1.30512,2.91378 2.91378,2.91378 1.60866,0 2.91378,-1.30512 2.91378,-2.91378 0,-14.3847 -2.22284,-28.1516 -6.2504,-40.7528 -4.18701,-13.102 -10.3358,-24.9402 -17.9752,-34.8992 -7.93229,-10.3417 -17.4614,-18.6768 -28.0973,-24.3697 -10.3134,-5.5193 -21.6638,-8.56536 -33.6118,-8.56536z"/>
  <path class="fil4" d="M1408.62 531.089c0.67441,1.75276 0.992127,3.67441 0.870473,5.67048l-9.02835 145.058c-0.137008,2.17677 -0.201969,4.813 -0.20315,7.88268 -0.579922,42.7701 38.7083,61.467 78.0839,60.4689l0.211417 -0.00472441 0.212599 0.00472441c39.3744,0.998032 78.6627,-17.6988 78.0827,-60.4689 0,-3.06969 -0.0661418,-5.70591 -0.201969,-7.88268l-8.15788 -150.729 35.1591 149.079c0.23504,3.79725 0.351969,6.96733 0.351969,9.53268 -0.0011811,33.0709 -11.2547,56.4166 -29.0988,72.0709 -17.4744,15.3295 -55.8863,68.4213 -67.7764,101.104 -3.14055,0.194882 -5.96221,0.311811 -8.47442,0.351969l-0.0968505 0.0011811 -0.0956694 -0.0011811c-2.51339,-0.0401575 -5.33504,-0.157087 -8.47442,-0.351969 -11.8913,-32.6823 -50.3032,-85.7741 -67.7764,-101.104 -17.8441,-15.6543 -29.0988,-39 -29.0988,-72.0709l0.351969 -9.53268 35.1591 -149.079z"/>
  <path class="fil4" d="M1450.18 531.715l-13.7504 226.16c0,7.49646 6.07796,13.5744 13.5744,13.5744 7.49764,0 13.5756,-6.07796 13.5756,-13.5744l-13.3996 -226.16z"/>
  <path class="fil4" d="M1503.68 528.902l-7.18701 228.973c0,7.49646 6.07796,13.5744 13.5744,13.5744 7.49764,0 13.5756,-6.07796 13.5756,-13.5744l-19.963 -228.973z"/>
  <path class="fil4" d="M1493.22 852.354c0,-7.49646 -6.07796,-4.513 -13.5744,-4.513 -7.49764,0 -13.8874,-2.67166 -13.8874,4.82599l0.703938 77.1544c0,72.8918 -31.6536,46.1528 -31.937,135l-0.937796 225.136 0 0c0,12.4866 5.09764,23.8276 13.3099,32.0398 8.21221,8.21339 19.5543,13.311 32.0386,13.311l0.0011811 0 0.0011811 0c12.4866,0 23.8276,-5.09764 32.041,-13.311 8.21221,-8.21221 13.6228,-19.2414 13.6228,-31.7268l0 -227.012c0,-94.6784 -30.9898,-56.8111 -30.9898,-137.812l-0.392126 -73.0926z"/>
  <path class="fil5" d="M1479.59 951.487l-14.3185 0.0791339c-5.7567,46.487 -30.4984,34.7504 -30.7488,113.255l-0.937796 225.136c-0.0519685,24.8835 20.3492,45.3508 45.3508,45.3508 0.218504,0 0.435827,-0.00590552 0.65315,-0.00944883l0.0011811 -383.811z"/>
  <path class="fil6" d="M1495.03 951.402l-15.124 0.0838583 -0.309449 0.0011811 -0.0011811 383.811 0.0472441 0c24.5788,-0.38504 44.9634,-20.9799 44.9634,-45.0284l0 -227.012c0,-82.4634 -23.5099,-64.376 -29.576,-111.856z"/>
  <path class="fil8" d="M1265.12 975.967l0 291.617c0,10.2473 -8.30788,18.5551 -18.5551,18.5551l-426.747 0c-10.2473,0 -18.554,-8.30788 -18.554,-18.5551l0 -306.031c-26.6079,-11.4095 -49.2296,-27.5693 -65.8016,-46.9701 -19.265,-22.552 -30.3981,-49.3666 -30.3981,-78.2717 0,-40.8296 22.1516,-77.419 57.9615,-103.57 34.1315,-24.9236 80.9138,-40.3394 132.256,-40.3394 27.1429,0 52.9926,4.2874 76.3477,11.9882 19.4941,6.42756 37.2898,15.2622 52.7044,26.002 16.3181,-10.8095 34.9914,-19.676 55.3536,-26.1095 24.1902,-7.6441 50.8075,-11.8807 78.7087,-11.8807 54.8504,0 104.809,16.4539 141.239,43.0571 38.1107,27.8292 61.6831,66.7394 61.6831,110.13 0,29.4792 -10.9228,56.9363 -29.9445,80.3209 -16.5414,20.3362 -39.2941,37.5118 -66.254,50.0575z"/>
  <path class="fil10" d="M1265.12 976.154l0 -0.186614 0.193701 -0.090945 0 -0.0318898c-38.2654,18.9047 -85.2863,30.0508 -136.119,30.0508 -61.878,0 -118.112,-16.5106 -159.773,-43.4351 -24.8977,10.3902 -53.1378,16.2555 -83.067,16.2555 -30.7441,0 -59.706,-6.18898 -85.0914,-17.1142l0 0.356693c55.4965,39.3071 105.376,43.6512 168.158,18.1996 103.214,64.7965 192.68,45.4347 295.697,-4.00394z"/>
  <path class="fil11" d="M1331.38 925.909c19.0217,-23.3847 29.9445,-50.8418 29.9445,-80.3209 0,-43.3902 -23.5725,-82.3005 -61.6831,-110.13 -36.4299,-26.6032 -86.3883,-43.0571 -141.239,-43.0571 -27.9012,0 -54.5185,4.23662 -78.7087,11.8807 -14.0941,4.45276 -27.3803,10.0724 -39.6355,16.6949 -58.6843,33.3213 -97.291,89.8973 -97.291,154.086 0,31.7067 9.4193,61.5544 26.0256,87.6603 0.211417,-0.0874016 0.422835,-0.174803 0.635434,-0.263386 41.6611,26.9244 97.8946,43.4351 159.773,43.4351 50.8323,0 97.8532,-11.1461 136.119,-30.0508l0 0.0318898c26.8748,-12.5362 49.5591,-29.6788 66.0603,-49.9666z"/>
 </g>
</svg>
